# xmcd
#
# Track frame offsets: 
#        150
#        15789
#        29429
#        46066
#        58327
#        82850
#        94395
#        104795
#        119342
#        131354
#        146554
#        166842
#        179036
#        194977
#
# Disc length: 2809 seconds
#
# Revision: 0
# Processed by: cddbd v1.5.2PL0 Copyright (c) Steve Scherf et al.
# Submitted via: ExactAudioCopy v1.0b3
#
DISCID=c50af70e
DTITLE=Stefan Ulbricht - Big Bigger Boogie
DYEAR=1900
DGENRE=
TTITLE0=Boogie in the Barrelhouse
TTITLE1=Big, Bigger, Boogie
TTITLE2=Cogwheel Boogie
TTITLE3=Jungle Town Jubilee
TTITLE4=Steel Dragon Reloaded
TTITLE5=Every once in a while
TTITLE6=Java
TTITLE7=Chattanooga Choo Choo
TTITLE8=The Fives
TTITLE9=Passegiata di Basso
TTITLE10=Kitchen Stomp
TTITLE11=Smoky Mountain Blues
TTITLE12=Bass going lazy
TTITLE13=308 for two
EXTD=
EXTT0=
EXTT1=
EXTT2=
EXTT3=
EXTT4=
EXTT5=
EXTT6=
EXTT7=
EXTT8=
EXTT9=
EXTT10=
EXTT11=
EXTT12=
EXTT13=
PLAYORDER=
